<mxfile host="65bd71144e">
    <diagram id="PLuav8SHaTY21kGN1Ygl" name="Page-1">
        <mxGraphModel dx="1076" dy="2986" grid="1" gridSize="10" guides="1" tooltips="1" connect="1" arrows="1" fold="1" page="1" pageScale="1" pageWidth="850" pageHeight="1100" math="0" shadow="0">
            <root>
                <mxCell id="0"/>
                <mxCell id="1" parent="0"/>
                <mxCell id="3" value="" style="endArrow=classic;html=1;entryX=0.5;entryY=0;entryDx=0;entryDy=0;" parent="1" target="10" edge="1">
                    <mxGeometry width="50" height="50" relative="1" as="geometry">
                        <mxPoint x="764.5" y="-100" as="sourcePoint"/>
                        <mxPoint x="765" y="-20" as="targetPoint"/>
                    </mxGeometry>
                </mxCell>
                <mxCell id="2" value="" style="ellipse;whiteSpace=wrap;html=1;aspect=fixed;fillColor=#000000;" parent="1" vertex="1">
                    <mxGeometry x="745" y="-130" width="40" height="40" as="geometry"/>
                </mxCell>
                <mxCell id="6" value="" style="endArrow=classic;html=1;exitX=1.1;exitY=0.775;exitDx=0;exitDy=0;exitPerimeter=0;entryX=0.5;entryY=0;entryDx=0;entryDy=0;" parent="1" source="12" target="8" edge="1">
                    <mxGeometry width="50" height="50" relative="1" as="geometry">
                        <mxPoint x="720" y="130" as="sourcePoint"/>
                        <mxPoint x="660" y="210" as="targetPoint"/>
                    </mxGeometry>
                </mxCell>
                <mxCell id="7" value="" style="endArrow=classic;html=1;exitX=0.9;exitY=0.288;exitDx=0;exitDy=0;exitPerimeter=0;entryX=0.5;entryY=0;entryDx=0;entryDy=0;" parent="1" source="12" target="9" edge="1">
                    <mxGeometry width="50" height="50" relative="1" as="geometry">
                        <mxPoint x="805" y="130" as="sourcePoint"/>
                        <mxPoint x="860" y="210" as="targetPoint"/>
                    </mxGeometry>
                </mxCell>
                <mxCell id="8" value="Aquire image" style="rounded=1;whiteSpace=wrap;html=1;" parent="1" vertex="1">
                    <mxGeometry x="600" y="160" width="120" height="60" as="geometry"/>
                </mxCell>
                <mxCell id="9" value="Aquire Sensor Data" style="rounded=1;whiteSpace=wrap;html=1;" parent="1" vertex="1">
                    <mxGeometry x="810" y="160" width="120" height="60" as="geometry"/>
                </mxCell>
                <mxCell id="10" value="Recieve Assessment Request" style="rounded=1;whiteSpace=wrap;html=1;shadow=0;" parent="1" vertex="1">
                    <mxGeometry x="705" y="-40" width="120" height="60" as="geometry"/>
                </mxCell>
                <mxCell id="11" value="" style="endArrow=classic;html=1;exitX=0.5;exitY=1;exitDx=0;exitDy=0;entryX=0.5;entryY=0.5;entryDx=0;entryDy=0;entryPerimeter=0;" parent="1" source="10" target="12" edge="1">
                    <mxGeometry width="50" height="50" relative="1" as="geometry">
                        <mxPoint x="835" y="230" as="sourcePoint"/>
                        <mxPoint x="767" y="90" as="targetPoint"/>
                    </mxGeometry>
                </mxCell>
                <mxCell id="12" value="" style="html=1;points=[];perimeter=orthogonalPerimeter;fillColor=strokeColor;rotation=90;" parent="1" vertex="1">
                    <mxGeometry x="762.5" y="20" width="5" height="160" as="geometry"/>
                </mxCell>
                <mxCell id="13" value="Sensor Data: Data" style="rounded=0;whiteSpace=wrap;html=1;" parent="1" vertex="1">
                    <mxGeometry x="810" y="280" width="120" height="60" as="geometry"/>
                </mxCell>
                <mxCell id="14" value="RGB Image: Image" style="rounded=0;whiteSpace=wrap;html=1;" parent="1" vertex="1">
                    <mxGeometry x="600" y="280" width="120" height="60" as="geometry"/>
                </mxCell>
                <mxCell id="15" value="" style="endArrow=classic;html=1;exitX=0.5;exitY=1;exitDx=0;exitDy=0;entryX=0.5;entryY=0;entryDx=0;entryDy=0;" parent="1" source="9" target="13" edge="1">
                    <mxGeometry width="50" height="50" relative="1" as="geometry">
                        <mxPoint x="835" y="230" as="sourcePoint"/>
                        <mxPoint x="885" y="180" as="targetPoint"/>
                    </mxGeometry>
                </mxCell>
                <mxCell id="16" value="" style="endArrow=classic;html=1;exitX=0.5;exitY=1;exitDx=0;exitDy=0;entryX=0.5;entryY=0;entryDx=0;entryDy=0;" parent="1" source="8" target="14" edge="1">
                    <mxGeometry width="50" height="50" relative="1" as="geometry">
                        <mxPoint x="659.5" y="220" as="sourcePoint"/>
                        <mxPoint x="659.5" y="280" as="targetPoint"/>
                    </mxGeometry>
                </mxCell>
                <mxCell id="17" value="" style="html=1;points=[];perimeter=orthogonalPerimeter;fillColor=strokeColor;rotation=90;" parent="1" vertex="1">
                    <mxGeometry x="762.5" y="430" width="5" height="160" as="geometry"/>
                </mxCell>
                <mxCell id="18" value="" style="endArrow=classic;html=1;exitX=0.5;exitY=1;exitDx=0;exitDy=0;entryX=0.5;entryY=0;entryDx=0;entryDy=0;" parent="1" source="13" target="24" edge="1">
                    <mxGeometry width="50" height="50" relative="1" as="geometry">
                        <mxPoint x="835" y="230" as="sourcePoint"/>
                        <mxPoint x="870" y="390" as="targetPoint"/>
                    </mxGeometry>
                </mxCell>
                <mxCell id="20" value="" style="endArrow=classic;html=1;exitX=0.5;exitY=1;exitDx=0;exitDy=0;entryX=0.5;entryY=0;entryDx=0;entryDy=0;" parent="1" source="14" target="23" edge="1">
                    <mxGeometry width="50" height="50" relative="1" as="geometry">
                        <mxPoint x="880" y="350" as="sourcePoint"/>
                        <mxPoint x="660" y="390" as="targetPoint"/>
                    </mxGeometry>
                </mxCell>
                <mxCell id="21" value="" style="endArrow=classic;html=1;exitX=0.5;exitY=0.5;exitDx=0;exitDy=0;exitPerimeter=0;entryX=0.5;entryY=0;entryDx=0;entryDy=0;" parent="1" source="17" target="22" edge="1">
                    <mxGeometry width="50" height="50" relative="1" as="geometry">
                        <mxPoint x="885" y="670" as="sourcePoint"/>
                        <mxPoint x="765" y="570" as="targetPoint"/>
                    </mxGeometry>
                </mxCell>
                <mxCell id="22" value="Processed Data:&amp;nbsp;" style="rounded=0;whiteSpace=wrap;html=1;" parent="1" vertex="1">
                    <mxGeometry x="705" y="580" width="120" height="60" as="geometry"/>
                </mxCell>
                <mxCell id="23" value="Image Processing" style="rounded=1;whiteSpace=wrap;html=1;" parent="1" vertex="1">
                    <mxGeometry x="600" y="390" width="120" height="60" as="geometry"/>
                </mxCell>
                <mxCell id="24" value="Sensor Fusion" style="rounded=1;whiteSpace=wrap;html=1;" parent="1" vertex="1">
                    <mxGeometry x="810" y="390" width="120" height="60" as="geometry"/>
                </mxCell>
                <mxCell id="25" value="" style="endArrow=classic;html=1;exitX=0.5;exitY=1;exitDx=0;exitDy=0;entryX=-0.414;entryY=0.767;entryDx=0;entryDy=0;entryPerimeter=0;" parent="1" source="23" target="17" edge="1">
                    <mxGeometry width="50" height="50" relative="1" as="geometry">
                        <mxPoint x="885" y="560" as="sourcePoint"/>
                        <mxPoint x="935" y="510" as="targetPoint"/>
                    </mxGeometry>
                </mxCell>
                <mxCell id="26" value="" style="endArrow=classic;html=1;exitX=0.5;exitY=1;exitDx=0;exitDy=0;entryX=-0.224;entryY=0.249;entryDx=0;entryDy=0;entryPerimeter=0;" parent="1" source="24" target="17" edge="1">
                    <mxGeometry width="50" height="50" relative="1" as="geometry">
                        <mxPoint x="885" y="560" as="sourcePoint"/>
                        <mxPoint x="935" y="510" as="targetPoint"/>
                    </mxGeometry>
                </mxCell>
                <mxCell id="27" value="Identify Cracks" style="rounded=1;whiteSpace=wrap;html=1;" parent="1" vertex="1">
                    <mxGeometry x="705" y="690" width="120" height="60" as="geometry"/>
                </mxCell>
                <mxCell id="28" value="" style="endArrow=classic;html=1;exitX=0.5;exitY=1;exitDx=0;exitDy=0;entryX=0.5;entryY=0;entryDx=0;entryDy=0;" parent="1" source="22" target="27" edge="1">
                    <mxGeometry width="50" height="50" relative="1" as="geometry">
                        <mxPoint x="885" y="660" as="sourcePoint"/>
                        <mxPoint x="935" y="610" as="targetPoint"/>
                    </mxGeometry>
                </mxCell>
                <mxCell id="29" value="Structural Risk Assessment" style="swimlane;whiteSpace=wrap;html=1;startSize=30;" vertex="1" parent="1">
                    <mxGeometry x="10" y="-1210" width="2530" height="1020" as="geometry">
                        <mxRectangle x="10" y="-1210" width="190" height="30" as="alternateBounds"/>
                    </mxGeometry>
                </mxCell>
                <mxCell id="30" value="Data Aquisition" style="swimlane;whiteSpace=wrap;html=1;" vertex="1" parent="29">
                    <mxGeometry y="30" width="760" height="990" as="geometry"/>
                </mxCell>
                <mxCell id="52" value="" style="group" vertex="1" connectable="0" parent="30">
                    <mxGeometry x="140" y="80" width="110" height="50" as="geometry"/>
                </mxCell>
                <mxCell id="42" value="" style="shape=collate;whiteSpace=wrap;html=1;" vertex="1" parent="52">
                    <mxGeometry x="60" width="50" height="50" as="geometry"/>
                </mxCell>
                <mxCell id="48" value="&lt;span style=&quot;color: rgb(0, 0, 0);&quot;&gt;every&lt;/span&gt;&lt;br&gt;50 ms" style="text;html=1;align=center;verticalAlign=middle;resizable=0;points=[];autosize=1;strokeColor=none;fillColor=none;" vertex="1" parent="52">
                    <mxGeometry x="1" y="5" width="60" height="40" as="geometry"/>
                </mxCell>
                <mxCell id="53" value="" style="group" vertex="1" connectable="0" parent="30">
                    <mxGeometry x="10" y="80" width="110" height="50" as="geometry"/>
                </mxCell>
                <mxCell id="43" value="" style="shape=collate;whiteSpace=wrap;html=1;" vertex="1" parent="53">
                    <mxGeometry x="60" width="50" height="50" as="geometry"/>
                </mxCell>
                <mxCell id="47" value="every&lt;br&gt;10 ms" style="text;html=1;align=center;verticalAlign=middle;resizable=0;points=[];autosize=1;strokeColor=none;fillColor=none;" vertex="1" parent="53">
                    <mxGeometry y="5" width="60" height="40" as="geometry"/>
                </mxCell>
                <mxCell id="54" value="" style="group" vertex="1" connectable="0" parent="30">
                    <mxGeometry x="295" y="80" width="110" height="50" as="geometry"/>
                </mxCell>
                <mxCell id="46" value="" style="shape=collate;whiteSpace=wrap;html=1;" vertex="1" parent="54">
                    <mxGeometry x="60" width="50" height="50" as="geometry"/>
                </mxCell>
                <mxCell id="49" value="&lt;span style=&quot;color: rgb(0, 0, 0);&quot;&gt;every&lt;/span&gt;&lt;br&gt;50 ms" style="text;html=1;align=center;verticalAlign=middle;resizable=0;points=[];autosize=1;strokeColor=none;fillColor=none;" vertex="1" parent="54">
                    <mxGeometry y="5" width="60" height="40" as="geometry"/>
                </mxCell>
                <mxCell id="55" value="" style="group" vertex="1" connectable="0" parent="30">
                    <mxGeometry x="430" y="80" width="110" height="50" as="geometry"/>
                </mxCell>
                <mxCell id="44" value="" style="shape=collate;whiteSpace=wrap;html=1;" vertex="1" parent="55">
                    <mxGeometry x="60" width="50" height="50" as="geometry"/>
                </mxCell>
                <mxCell id="50" value="&lt;span style=&quot;color: rgb(0, 0, 0);&quot;&gt;every&lt;/span&gt;&lt;br&gt;20 ms" style="text;html=1;align=center;verticalAlign=middle;resizable=0;points=[];autosize=1;strokeColor=none;fillColor=none;" vertex="1" parent="55">
                    <mxGeometry y="5" width="60" height="40" as="geometry"/>
                </mxCell>
                <mxCell id="56" value="" style="group" vertex="1" connectable="0" parent="30">
                    <mxGeometry x="570" y="80" width="110" height="50" as="geometry"/>
                </mxCell>
                <mxCell id="45" value="" style="shape=collate;whiteSpace=wrap;html=1;" vertex="1" parent="56">
                    <mxGeometry x="60" width="50" height="50" as="geometry"/>
                </mxCell>
                <mxCell id="51" value="&lt;span style=&quot;color: rgb(0, 0, 0);&quot;&gt;every&lt;/span&gt;&lt;br&gt;20 ms" style="text;html=1;align=center;verticalAlign=middle;resizable=0;points=[];autosize=1;strokeColor=none;fillColor=none;" vertex="1" parent="56">
                    <mxGeometry y="5" width="60" height="40" as="geometry"/>
                </mxCell>
                <mxCell id="57" value="Aquire LIDAR" style="rounded=1;whiteSpace=wrap;html=1;" vertex="1" parent="30">
                    <mxGeometry x="35" y="170" width="120" height="60" as="geometry"/>
                </mxCell>
                <mxCell id="58" value="Aquire RGB camera" style="rounded=1;whiteSpace=wrap;html=1;" vertex="1" parent="30">
                    <mxGeometry x="165" y="170" width="120" height="60" as="geometry"/>
                </mxCell>
                <mxCell id="59" value="Aquire Depth camera" style="rounded=1;whiteSpace=wrap;html=1;" vertex="1" parent="30">
                    <mxGeometry x="320" y="160" width="120" height="60" as="geometry"/>
                </mxCell>
                <mxCell id="60" value="Aquire Sonar" style="rounded=1;whiteSpace=wrap;html=1;" vertex="1" parent="30">
                    <mxGeometry x="455" y="170" width="120" height="60" as="geometry"/>
                </mxCell>
                <mxCell id="63" value="" style="edgeStyle=none;html=1;exitX=0.5;exitY=1;exitDx=0;exitDy=0;entryX=0.5;entryY=0;entryDx=0;entryDy=0;" edge="1" parent="30" source="44" target="60">
                    <mxGeometry relative="1" as="geometry"/>
                </mxCell>
                <mxCell id="61" value="Aquire Force" style="rounded=1;whiteSpace=wrap;html=1;" vertex="1" parent="30">
                    <mxGeometry x="595" y="170" width="120" height="60" as="geometry"/>
                </mxCell>
                <mxCell id="62" value="" style="endArrow=classic;html=1;exitX=0.5;exitY=1;exitDx=0;exitDy=0;entryX=0.5;entryY=0;entryDx=0;entryDy=0;" edge="1" parent="30" source="45" target="61">
                    <mxGeometry width="50" height="50" relative="1" as="geometry">
                        <mxPoint x="600" y="500" as="sourcePoint"/>
                        <mxPoint x="650" y="450" as="targetPoint"/>
                    </mxGeometry>
                </mxCell>
                <mxCell id="65" value="" style="edgeStyle=none;html=1;exitX=0.5;exitY=1;exitDx=0;exitDy=0;entryX=0.5;entryY=0;entryDx=0;entryDy=0;" edge="1" parent="30" source="46" target="59">
                    <mxGeometry relative="1" as="geometry">
                        <mxPoint x="525" y="140" as="sourcePoint"/>
                        <mxPoint x="525" y="180" as="targetPoint"/>
                    </mxGeometry>
                </mxCell>
                <mxCell id="67" value="" style="edgeStyle=none;html=1;exitX=0.5;exitY=1;exitDx=0;exitDy=0;entryX=0.5;entryY=0;entryDx=0;entryDy=0;" edge="1" parent="30" source="42" target="58">
                    <mxGeometry relative="1" as="geometry">
                        <mxPoint x="545" y="160" as="sourcePoint"/>
                        <mxPoint x="545" y="200" as="targetPoint"/>
                    </mxGeometry>
                </mxCell>
                <mxCell id="66" value="" style="edgeStyle=none;html=1;exitX=0.5;exitY=1;exitDx=0;exitDy=0;entryX=0.5;entryY=0;entryDx=0;entryDy=0;" edge="1" parent="30" source="43" target="57">
                    <mxGeometry relative="1" as="geometry">
                        <mxPoint x="535" y="150" as="sourcePoint"/>
                        <mxPoint x="535" y="190" as="targetPoint"/>
                    </mxGeometry>
                </mxCell>
                <mxCell id="68" value="sensor_msgs: Image" style="rounded=0;whiteSpace=wrap;html=1;" vertex="1" parent="30">
                    <mxGeometry x="320" y="290" width="120" height="60" as="geometry"/>
                </mxCell>
                <mxCell id="69" value="" style="endArrow=classic;html=1;exitX=0.5;exitY=1;exitDx=0;exitDy=0;entryX=0.5;entryY=0;entryDx=0;entryDy=0;" edge="1" parent="30" target="68" source="59">
                    <mxGeometry width="50" height="50" relative="1" as="geometry">
                        <mxPoint x="380" y="230" as="sourcePoint"/>
                        <mxPoint x="379.5" y="290" as="targetPoint"/>
                    </mxGeometry>
                </mxCell>
                <mxCell id="71" value="" style="html=1;points=[];perimeter=orthogonalPerimeter;fillColor=strokeColor;rotation=90;" vertex="1" parent="30">
                    <mxGeometry x="377.5" y="350" width="5" height="160" as="geometry"/>
                </mxCell>
                <mxCell id="72" value="" style="endArrow=classic;html=1;exitX=0.5;exitY=1;exitDx=0;exitDy=0;entryX=-0.045;entryY=0.503;entryDx=0;entryDy=0;entryPerimeter=0;" edge="1" parent="30" source="68" target="71">
                    <mxGeometry width="50" height="50" relative="1" as="geometry">
                        <mxPoint x="450" y="420" as="sourcePoint"/>
                        <mxPoint x="500" y="370" as="targetPoint"/>
                    </mxGeometry>
                </mxCell>
                <mxCell id="76" value="A" style="ellipse;whiteSpace=wrap;html=1;aspect=fixed;" vertex="1" parent="30">
                    <mxGeometry x="360" y="510" width="40" height="40" as="geometry"/>
                </mxCell>
                <mxCell id="75" value="" style="endArrow=classic;html=1;exitX=0.682;exitY=0.504;exitDx=0;exitDy=0;exitPerimeter=0;" edge="1" parent="30" source="71" target="76">
                    <mxGeometry width="50" height="50" relative="1" as="geometry">
                        <mxPoint x="410" y="450" as="sourcePoint"/>
                        <mxPoint x="380" y="490" as="targetPoint"/>
                    </mxGeometry>
                </mxCell>
                <mxCell id="114" value="sensor_msgs: Range" style="rounded=0;whiteSpace=wrap;html=1;" vertex="1" parent="30">
                    <mxGeometry x="455" y="290" width="120" height="60" as="geometry"/>
                </mxCell>
                <mxCell id="115" value="" style="endArrow=classic;html=1;exitX=0.5;exitY=1;exitDx=0;exitDy=0;entryX=0.5;entryY=0;entryDx=0;entryDy=0;" edge="1" parent="30" target="114" source="60">
                    <mxGeometry width="50" height="50" relative="1" as="geometry">
                        <mxPoint x="515" y="230" as="sourcePoint"/>
                        <mxPoint x="514.5" y="290" as="targetPoint"/>
                    </mxGeometry>
                </mxCell>
                <mxCell id="116" value="" style="endArrow=classic;html=1;exitX=0.5;exitY=1;exitDx=0;exitDy=0;entryX=-0.38;entryY=0.183;entryDx=0;entryDy=0;entryPerimeter=0;" edge="1" parent="30" source="114" target="71">
                    <mxGeometry width="50" height="50" relative="1" as="geometry">
                        <mxPoint x="585" y="420" as="sourcePoint"/>
                        <mxPoint x="430" y="420" as="targetPoint"/>
                    </mxGeometry>
                </mxCell>
                <mxCell id="117" value="sensor_msgs: WrenchStamped" style="rounded=0;whiteSpace=wrap;html=1;" vertex="1" parent="30">
                    <mxGeometry x="595" y="290" width="120" height="60" as="geometry"/>
                </mxCell>
                <mxCell id="118" value="" style="endArrow=classic;html=1;entryX=0.5;entryY=0;entryDx=0;entryDy=0;exitX=0.5;exitY=1;exitDx=0;exitDy=0;" edge="1" parent="30" target="117" source="61">
                    <mxGeometry width="50" height="50" relative="1" as="geometry">
                        <mxPoint x="670" y="250" as="sourcePoint"/>
                        <mxPoint x="654.5" y="290" as="targetPoint"/>
                    </mxGeometry>
                </mxCell>
                <mxCell id="119" value="" style="endArrow=classic;html=1;exitX=0.5;exitY=1;exitDx=0;exitDy=0;entryX=-0.54;entryY=0.038;entryDx=0;entryDy=0;entryPerimeter=0;" edge="1" parent="30" source="117" target="71">
                    <mxGeometry width="50" height="50" relative="1" as="geometry">
                        <mxPoint x="725" y="420" as="sourcePoint"/>
                        <mxPoint x="655" y="427" as="targetPoint"/>
                    </mxGeometry>
                </mxCell>
                <mxCell id="120" value="sensor_msgs: Image" style="rounded=0;whiteSpace=wrap;html=1;" vertex="1" parent="30">
                    <mxGeometry x="165" y="290" width="120" height="60" as="geometry"/>
                </mxCell>
                <mxCell id="121" value="" style="endArrow=classic;html=1;entryX=0.5;entryY=0;entryDx=0;entryDy=0;exitX=0.5;exitY=1;exitDx=0;exitDy=0;" edge="1" parent="30" target="120" source="58">
                    <mxGeometry width="50" height="50" relative="1" as="geometry">
                        <mxPoint x="240" y="250" as="sourcePoint"/>
                        <mxPoint x="224.5" y="290" as="targetPoint"/>
                    </mxGeometry>
                </mxCell>
                <mxCell id="122" value="" style="endArrow=classic;html=1;exitX=0.5;exitY=1;exitDx=0;exitDy=0;entryX=-0.7;entryY=0.688;entryDx=0;entryDy=0;entryPerimeter=0;" edge="1" parent="30" source="120" target="71">
                    <mxGeometry width="50" height="50" relative="1" as="geometry">
                        <mxPoint x="295" y="420" as="sourcePoint"/>
                        <mxPoint x="225" y="427" as="targetPoint"/>
                    </mxGeometry>
                </mxCell>
                <mxCell id="123" value="sensor_msgs: LaserScans" style="rounded=0;whiteSpace=wrap;html=1;" vertex="1" parent="30">
                    <mxGeometry x="35" y="290" width="120" height="60" as="geometry"/>
                </mxCell>
                <mxCell id="124" value="" style="endArrow=classic;html=1;entryX=0.5;entryY=0;entryDx=0;entryDy=0;exitX=0.5;exitY=1;exitDx=0;exitDy=0;" edge="1" parent="30" target="123" source="57">
                    <mxGeometry width="50" height="50" relative="1" as="geometry">
                        <mxPoint x="100" y="240" as="sourcePoint"/>
                        <mxPoint x="94.5" y="290" as="targetPoint"/>
                    </mxGeometry>
                </mxCell>
                <mxCell id="125" value="" style="endArrow=classic;html=1;exitX=0.5;exitY=1;exitDx=0;exitDy=0;entryX=-0.38;entryY=0.938;entryDx=0;entryDy=0;entryPerimeter=0;" edge="1" parent="30" source="123" target="71">
                    <mxGeometry width="50" height="50" relative="1" as="geometry">
                        <mxPoint x="165" y="420" as="sourcePoint"/>
                        <mxPoint x="310" y="420" as="targetPoint"/>
                    </mxGeometry>
                </mxCell>
                <mxCell id="41" value="Communications" style="swimlane;whiteSpace=wrap;html=1;" vertex="1" parent="29">
                    <mxGeometry x="2230" y="60" width="460" height="900" as="geometry"/>
                </mxCell>
                <mxCell id="188" value="E" style="ellipse;" vertex="1" parent="41">
                    <mxGeometry x="260" y="140" width="30" height="30" as="geometry"/>
                </mxCell>
                <mxCell id="194" value="Log Results" style="rounded=1;whiteSpace=wrap;html=1;" vertex="1" parent="41">
                    <mxGeometry x="70" y="280" width="120" height="60" as="geometry"/>
                </mxCell>
                <mxCell id="191" value="" style="shape=sumEllipse;perimeter=ellipsePerimeter;html=1;backgroundOutline=1;" vertex="1" parent="41">
                    <mxGeometry x="130" y="410" width="30" height="30" as="geometry"/>
                </mxCell>
                <mxCell id="195" value="C" style="ellipse;" vertex="1" parent="41">
                    <mxGeometry x="100" y="130" width="30" height="30" as="geometry"/>
                </mxCell>
                <mxCell id="35" value="Data Processing" style="swimlane;whiteSpace=wrap;html=1;" vertex="1" parent="29">
                    <mxGeometry x="760" y="30" width="460" height="990" as="geometry"/>
                </mxCell>
                <mxCell id="126" value="A" style="ellipse;whiteSpace=wrap;html=1;aspect=fixed;" vertex="1" parent="35">
                    <mxGeometry x="210" y="90" width="40" height="40" as="geometry"/>
                </mxCell>
                <mxCell id="128" value="Sensor Fusion" style="rounded=1;whiteSpace=wrap;html=1;" vertex="1" parent="35">
                    <mxGeometry x="170" y="190" width="120" height="60" as="geometry"/>
                </mxCell>
                <mxCell id="127" value="" style="endArrow=classic;html=1;exitX=0.5;exitY=1;exitDx=0;exitDy=0;entryX=0.5;entryY=0;entryDx=0;entryDy=0;" edge="1" parent="35" source="126" target="128">
                    <mxGeometry width="50" height="50" relative="1" as="geometry">
                        <mxPoint x="150" y="380" as="sourcePoint"/>
                        <mxPoint x="230" y="180" as="targetPoint"/>
                    </mxGeometry>
                </mxCell>
                <mxCell id="130" value="B" style="ellipse;whiteSpace=wrap;html=1;aspect=fixed;" vertex="1" parent="35">
                    <mxGeometry x="210" y="300" width="40" height="40" as="geometry"/>
                </mxCell>
                <mxCell id="129" value="" style="endArrow=classic;html=1;exitX=0.5;exitY=1;exitDx=0;exitDy=0;entryX=0.5;entryY=0;entryDx=0;entryDy=0;" edge="1" parent="35" source="128" target="130">
                    <mxGeometry width="50" height="50" relative="1" as="geometry">
                        <mxPoint x="150" y="380" as="sourcePoint"/>
                        <mxPoint x="230" y="320" as="targetPoint"/>
                    </mxGeometry>
                </mxCell>
                <mxCell id="36" value="Autonomous Control" style="swimlane;whiteSpace=wrap;html=1;" vertex="1" parent="29">
                    <mxGeometry x="1800" y="30" width="400" height="990" as="geometry"/>
                </mxCell>
                <mxCell id="189" value="D" style="ellipse;" vertex="1" parent="36">
                    <mxGeometry x="185" y="80" width="30" height="30" as="geometry"/>
                </mxCell>
                <mxCell id="39" value="Decision Making" style="swimlane;whiteSpace=wrap;html=1;" vertex="1" parent="1">
                    <mxGeometry x="1230" y="-1180" width="580" height="990" as="geometry"/>
                </mxCell>
                <mxCell id="160" value="Classify Risk Level" style="rounded=1;whiteSpace=wrap;html=1;" vertex="1" parent="39">
                    <mxGeometry x="350" y="462.22" width="120" height="60" as="geometry"/>
                </mxCell>
                <mxCell id="161" value="" style="html=1;verticalAlign=bottom;labelBackgroundColor=none;endArrow=block;endFill=1;exitX=0.204;exitY=0.717;exitDx=0;exitDy=0;exitPerimeter=0;entryX=0.5;entryY=0;entryDx=0;entryDy=0;" edge="1" parent="39" source="136" target="190">
                    <mxGeometry width="160" relative="1" as="geometry">
                        <mxPoint x="150" y="330" as="sourcePoint"/>
                        <mxPoint x="110" y="462.22000000000025" as="targetPoint"/>
                    </mxGeometry>
                </mxCell>
                <mxCell id="162" value="[false]" style="edgeLabel;html=1;align=center;verticalAlign=middle;resizable=0;points=[];" vertex="1" connectable="0" parent="161">
                    <mxGeometry x="-0.0208" y="-1" relative="1" as="geometry">
                        <mxPoint as="offset"/>
                    </mxGeometry>
                </mxCell>
                <mxCell id="163" value="" style="html=1;verticalAlign=bottom;labelBackgroundColor=none;endArrow=block;endFill=1;exitX=1;exitY=1;exitDx=0;exitDy=0;entryX=0.5;entryY=0;entryDx=0;entryDy=0;" edge="1" parent="39" source="136" target="160">
                    <mxGeometry width="160" relative="1" as="geometry">
                        <mxPoint x="216" y="387" as="sourcePoint"/>
                        <mxPoint x="145" y="473" as="targetPoint"/>
                    </mxGeometry>
                </mxCell>
                <mxCell id="164" value="[true]" style="edgeLabel;html=1;align=center;verticalAlign=middle;resizable=0;points=[];" vertex="1" connectable="0" parent="163">
                    <mxGeometry x="-0.0208" y="-1" relative="1" as="geometry">
                        <mxPoint as="offset"/>
                    </mxGeometry>
                </mxCell>
                <mxCell id="167" value="" style="rhombus;whiteSpace=wrap;html=1;" vertex="1" parent="39">
                    <mxGeometry x="369.99999999999994" y="592.22" width="80" height="80" as="geometry"/>
                </mxCell>
                <mxCell id="168" value="" style="endArrow=classic;html=1;entryX=0.5;entryY=0;entryDx=0;entryDy=0;exitX=0.5;exitY=1;exitDx=0;exitDy=0;" edge="1" parent="39" target="167" source="160">
                    <mxGeometry width="50" height="50" relative="1" as="geometry">
                        <mxPoint x="420" y="537.22" as="sourcePoint"/>
                        <mxPoint x="409.99999999999994" y="582.22" as="targetPoint"/>
                    </mxGeometry>
                </mxCell>
                <mxCell id="169" value="riskLevel(Level)" style="shape=note2;boundedLbl=1;whiteSpace=wrap;html=1;size=25;verticalAlign=top;align=left;spacingLeft=5;whiteSpace=wrap;" vertex="1" parent="39">
                    <mxGeometry x="199.99999999999994" y="532.22" width="160" height="60" as="geometry"/>
                </mxCell>
                <mxCell id="170" value="&amp;lt;&amp;lt;decisionInput&amp;gt;&amp;gt;" style="resizeWidth=1;part=1;html=1;strokeColor=none;fillColor=none;align=left;spacingLeft=5;whiteSpace=wrap;" vertex="1" parent="169">
                    <mxGeometry width="160" height="25" relative="1" as="geometry"/>
                </mxCell>
                <mxCell id="171" value="" style="ellipse;" vertex="1" parent="39">
                    <mxGeometry x="379.99999999999994" y="612.22" width="10" height="10" as="geometry"/>
                </mxCell>
                <mxCell id="172" value="" style="endArrow=none;html=1;rounded=0;align=center;verticalAlign=top;endFill=0;labelBackgroundColor=none;exitX=0;exitY=0;exitDx=160;exitDy=42.5;exitPerimeter=0;entryX=0;entryY=0;entryDx=0;entryDy=0;" edge="1" parent="39" source="169" target="171">
                    <mxGeometry relative="1" as="geometry">
                        <mxPoint x="239.99999999999994" y="642.22" as="sourcePoint"/>
                        <mxPoint x="399.99999999999994" y="642.22" as="targetPoint"/>
                    </mxGeometry>
                </mxCell>
                <mxCell id="173" value="" style="resizable=0;html=1;align=right;verticalAlign=bottom;labelBackgroundColor=none;" connectable="0" vertex="1" parent="172">
                    <mxGeometry x="1" relative="1" as="geometry"/>
                </mxCell>
                <mxCell id="176" value="" style="html=1;verticalAlign=bottom;labelBackgroundColor=none;endArrow=block;endFill=1;exitX=1;exitY=1;exitDx=0;exitDy=0;" edge="1" parent="39" source="167">
                    <mxGeometry width="160" relative="1" as="geometry">
                        <mxPoint x="360" y="717.22" as="sourcePoint"/>
                        <mxPoint x="485" y="737.22" as="targetPoint"/>
                    </mxGeometry>
                </mxCell>
                <mxCell id="178" value="[&amp;gt;= threshold]" style="edgeLabel;html=1;align=center;verticalAlign=middle;resizable=0;points=[];" vertex="1" connectable="0" parent="176">
                    <mxGeometry x="-0.1473" y="1" relative="1" as="geometry">
                        <mxPoint as="offset"/>
                    </mxGeometry>
                </mxCell>
                <mxCell id="179" value="" style="html=1;verticalAlign=bottom;labelBackgroundColor=none;endArrow=block;endFill=1;exitX=0;exitY=1;exitDx=0;exitDy=0;entryX=0.5;entryY=0;entryDx=0;entryDy=0;" edge="1" parent="39" source="167" target="185">
                    <mxGeometry width="160" relative="1" as="geometry">
                        <mxPoint x="400" y="687.22" as="sourcePoint"/>
                        <mxPoint x="360" y="737.22" as="targetPoint"/>
                    </mxGeometry>
                </mxCell>
                <mxCell id="180" value="[&amp;lt; threshold]" style="edgeLabel;html=1;align=center;verticalAlign=middle;resizable=0;points=[];" vertex="1" connectable="0" parent="179">
                    <mxGeometry x="-0.1473" y="1" relative="1" as="geometry">
                        <mxPoint x="-3" as="offset"/>
                    </mxGeometry>
                </mxCell>
                <mxCell id="186" value="E" style="ellipse;" vertex="1" parent="39">
                    <mxGeometry x="470" y="737.22" width="30" height="30" as="geometry"/>
                </mxCell>
                <mxCell id="185" value="D" style="ellipse;" vertex="1" parent="39">
                    <mxGeometry x="320" y="737.22" width="30" height="30" as="geometry"/>
                </mxCell>
                <mxCell id="151" value="" style="ellipse;whiteSpace=wrap;html=1;align=center;aspect=fixed;fillColor=none;strokeColor=none;resizable=0;perimeter=centerPerimeter;rotatable=0;allowArrows=0;points=[];outlineConnect=1;" vertex="1" parent="39">
                    <mxGeometry x="165" y="365" width="10" height="10" as="geometry"/>
                </mxCell>
                <mxCell id="132" value="Identify Cracks" style="rounded=1;whiteSpace=wrap;html=1;" vertex="1" parent="39">
                    <mxGeometry x="200" y="185" width="120" height="60" as="geometry"/>
                </mxCell>
                <mxCell id="136" value="" style="rhombus;whiteSpace=wrap;html=1;" vertex="1" parent="39">
                    <mxGeometry x="220" y="315" width="80" height="80" as="geometry"/>
                </mxCell>
                <mxCell id="133" value="B" style="ellipse;whiteSpace=wrap;html=1;aspect=fixed;" vertex="1" parent="39">
                    <mxGeometry x="240" y="80" width="40" height="40" as="geometry"/>
                </mxCell>
                <mxCell id="134" value="" style="endArrow=classic;html=1;exitX=0.5;exitY=1;exitDx=0;exitDy=0;entryX=0.5;entryY=0;entryDx=0;entryDy=0;" edge="1" parent="39" source="133" target="132">
                    <mxGeometry width="50" height="50" relative="1" as="geometry">
                        <mxPoint x="-100" y="485" as="sourcePoint"/>
                        <mxPoint x="-50" y="435" as="targetPoint"/>
                    </mxGeometry>
                </mxCell>
                <mxCell id="135" value="" style="endArrow=classic;html=1;exitX=0.5;exitY=1;exitDx=0;exitDy=0;entryX=0.5;entryY=0;entryDx=0;entryDy=0;" edge="1" parent="39" source="132" target="136">
                    <mxGeometry width="50" height="50" relative="1" as="geometry">
                        <mxPoint x="-100" y="485" as="sourcePoint"/>
                        <mxPoint x="260" y="305" as="targetPoint"/>
                    </mxGeometry>
                </mxCell>
                <mxCell id="138" value="isFound(crack)" style="shape=note2;boundedLbl=1;whiteSpace=wrap;html=1;size=25;verticalAlign=top;align=left;spacingLeft=5;whiteSpace=wrap;" vertex="1" parent="39">
                    <mxGeometry x="50" y="255" width="160" height="60" as="geometry"/>
                </mxCell>
                <mxCell id="139" value="&amp;lt;&amp;lt;decisionInput&amp;gt;&amp;gt;" style="resizeWidth=1;part=1;html=1;strokeColor=none;fillColor=none;align=left;spacingLeft=5;whiteSpace=wrap;" vertex="1" parent="138">
                    <mxGeometry width="160" height="25" relative="1" as="geometry"/>
                </mxCell>
                <mxCell id="152" value="" style="ellipse;" vertex="1" parent="39">
                    <mxGeometry x="230" y="335" width="10" height="10" as="geometry"/>
                </mxCell>
                <mxCell id="153" value="" style="endArrow=none;html=1;rounded=0;align=center;verticalAlign=top;endFill=0;labelBackgroundColor=none;exitX=0;exitY=0;exitDx=160;exitDy=42.5;exitPerimeter=0;entryX=0;entryY=0;entryDx=0;entryDy=0;" edge="1" parent="39" source="138" target="152">
                    <mxGeometry relative="1" as="geometry">
                        <mxPoint x="90" y="365" as="sourcePoint"/>
                        <mxPoint x="250" y="365" as="targetPoint"/>
                    </mxGeometry>
                </mxCell>
                <mxCell id="156" value="" style="resizable=0;html=1;align=right;verticalAlign=bottom;labelBackgroundColor=none;" connectable="0" vertex="1" parent="153">
                    <mxGeometry x="1" relative="1" as="geometry"/>
                </mxCell>
                <mxCell id="190" value="C" style="ellipse;" vertex="1" parent="39">
                    <mxGeometry x="90" y="462.22" width="30" height="30" as="geometry"/>
                </mxCell>
            </root>
        </mxGraphModel>
    </diagram>
</mxfile>